<svg xmlns="http://www.w3.org/2000/svg" viewBox="0 0 279.57 321"><defs><style>.cls-1{fill:var(--primary-color);}</style></defs><g id="Camada_2" data-name="Camada 2"><g id="Icons"><path class="cls-1" d="M31.13,262H0l11.37-83.71H43.1l4.79-35.53H16.76L28.14,59H59.27L67.65,0h84.41l-8.38,59H164l8.38-59h84.41l-8.38,59h31.13L268.2,142.74H237.07l-5.39,35.53h31.13L251.43,262H220.3l-8.38,59H127.51l8.38-59H115.54l-8.38,59H22.75ZM175.4,225.25l-9,65.64h12l9-65.64h38.91l1.8-13.25H189.17l14.37-103h39.51l1.8-13.25H205.94l9-65.65h-12l-9.58,65.65H104.17l9-65.65h-12L91.59,95.76H53.28L51.48,109H89.8L76,212H37.12l-1.8,13.25H73.63l-9,65.64h12l9-65.64ZM191.57,109,177.2,212H88l14.37-103Zm-64.66,69.26h20.36l5.39-35.53H132.3Z"/></g></g></svg>